<svg enable-background="new 0 0 158 70" viewBox="0 0 158 70" xmlns="http://www.w3.org/2000/svg"><path d="m140.49 54.46c-.06 0-.12 0-.18.01-1.28.04-2.35.99-2.55 2.26h4.4c.07-.22.09-.46.07-.69-.09-.91-.85-1.58-1.74-1.58z" fill="#fff"/><path d="m147.06 52.38c-.94-1.15-2.23-2.01-3.7-2.46-1.3-.4-2.67-.5-4.02-.39-.65.06-1.26.16-1.88.35-.32.1-.63.22-.94.34-.03.01-.53.19-.84.36-.53-.63-1.31-.96-2.09-1.11 1.54-.81 2.33-2.08 3.12-3.59l8.5-16.46h-16.14l1.05-5.02-120.86-24.15 31.53 29.81-21.34 39.65 62.08-25.14c1.6 1.43 3.69 2.17 5.83 2.06 3.83 0 6.47-1.32 7.97-3.76.78 1.43 2.01 2.51 3.6 3.14l-4.4 20.7h8.49l1.52-7.14h3.05l-1.52 7.14h21.84l.29-1.36 1.52-7.14c.06-.27.15-.49.29-.67.15-.19.32-.33.52-.43.19-.09.37-.14.58-.14-.09.46-.14.93-.15 1.41-.01.19-.01.39 0 .59.01 2.51.79 4.57 2.26 5.97 2.88 2.73 8.38 2.67 11.57.52 1.63-1.1 2.78-2.84 3.35-4.73.83-2.77.8-6.04-1.08-8.35z" fill="#fff"/><path d="m61.39 50.92 1.29-6.19c-2.16 1.29-4.64 1.93-7.16 1.87-5.02 0-10.82-2.42-9.98-10.68h5.87c-2.38-1.26-3.81-3.77-3.69-6.46 0-4.98 4.16-8.46 10.11-8.46 8.37 0 10.17 5.34 9.94 8.41h7.66c2.43-.18 4.72 1.15 5.77 3.34 1.79-2.34 4.6-3.69 7.55-3.62 2.97-.17 5.8 1.31 7.36 3.84 1.77-2.48 4.66-3.92 7.71-3.84 2.22-.08 4.38.69 6.05 2.16l15.26-6.18-110.49-22.07 28.23 26.69-19.74 36.68z" fill="#cc1517"/><path d="m122.95 50.25.76-3.55h-4.87l-.75 3.55z" fill="#2b2a68"/><g fill="#2e296c"><path d="m142.16 56.72h-4.4c.2-1.27 1.27-2.21 2.55-2.26.96-.1 1.82.61 1.92 1.57.02.24 0 .47-.07.69m-1.78-5.51c-4.12-.13-7.57 3.1-7.7 7.22-.01.17-.01.33 0 .5 0 4.26 2.48 6.31 6.32 6.31 4.27 0 6.44-1.93 7.2-4.34h-4.8c-.39.74-1.19 1.16-2.02 1.08-1.41 0-2.04-1.09-1.97-2.63h9.28c1.21-5.42-2.08-8.15-6.31-8.14"/><path d="m96.66 64.99 3.89-18.29h4.96l-1.52 7.15h6.57l1.52-7.15h4.96l-3.88 18.29h-4.97l1.52-7.14h-6.57l-1.52 7.14z"/><path d="m121.58 64.99 2.91-13.71h4.79l-.55 2.61h.14c.45-.96 1-1.67 1.64-2.12s1.32-.67 2.06-.67c.21 0 .42.02.63.05.2.03.4.08.58.14l-.89 4.2c-.23-.08-.51-.15-.86-.19s-.65-.06-.91-.06c-.48 0-.94.11-1.37.33s-.8.52-1.1.91-.51.85-.62 1.37l-1.52 7.14z"/><path d="m117.88 51.27-2.91 13.72h4.84l2.92-13.72z"/><path d="m137.13 31.1-3.45 8.2-.93-8.2h-5.18l2.44 12.2c.23 1.14-.49 1.35-1.58 1.35h-2.55l-.85 4.1h3.44c4.63 0 5.55-1.35 6.74-3.66l7.24-14z"/><path d="m75.18 37.85c-.28 1.85-1.44 3.35-2.77 3.35-1.43 0-1.85-1.54-1.58-3.39s1.11-3.3 2.53-3.3c1.32-.01 2.1 1.49 1.82 3.34m.25-7.02c-1.4.03-2.72.68-3.61 1.77l.31-1.5h-4.91l-3.97 19.07 5.62-2.28.99-4.69c.86 1.09 2.18 1.73 3.57 1.73 3.88 0 6.9-3.5 6.9-8.15-.01-3.88-1.84-5.96-4.9-5.95"/><path d="m90.54 36.37h-4.43c.2-1.28 1.28-2.23 2.57-2.28.97-.1 1.83.6 1.93 1.57.03.24 0 .48-.07.71m-1.79-5.57c-4.16-.13-7.64 3.13-7.77 7.29-.01.17-.01.34 0 .51 0 4.29 2.51 6.36 6.38 6.36 4.3 0 6.5-1.94 7.27-4.38h-4.84c-.39.75-1.2 1.18-2.04 1.08-1.42 0-2.06-1.1-1.98-2.65h9.35c1.22-5.46-2.1-8.21-6.37-8.21"/><path d="m105.61 36.37h-4.43c.2-1.28 1.28-2.23 2.57-2.28.97-.1 1.84.61 1.93 1.58.02.24 0 .47-.07.7m-1.8-5.57c-4.16-.13-7.64 3.13-7.77 7.28-.01.17-.01.34 0 .51 0 4.29 2.51 6.36 6.38 6.36 4.31 0 6.5-1.94 7.26-4.38h-4.84c-.39.74-1.2 1.17-2.04 1.08-1.42 0-2.06-1.1-1.98-2.65h9.36c1.22-5.45-2.09-8.2-6.37-8.2"/><path d="m120.55 37.95c-.27 1.85-1.11 3.3-2.53 3.3-1.3 0-2.09-1.5-1.81-3.34.28-1.85 1.43-3.34 2.77-3.34 1.42-.01 1.85 1.53 1.57 3.38m1.97-9.98-.93 4.47c-.92-1.03-2.23-1.62-3.61-1.62-3.88 0-6.9 3.5-6.9 8.15 0 3.88 1.84 5.95 4.9 5.95 1.4-.03 2.72-.68 3.61-1.77l-.31 1.5h4.91l3.95-18.95z"/><path d="m55.19 28.78c0-1.1.95-1.84 2.57-1.84 1.84 0 2.79.96 2.58 2.79h5.73c.29-2.63-.8-7.05-8.24-7.05-5.4 0-8.44 3.03-8.44 6.78 0 7.41 9.79 5.46 9.79 8.71 0 1.18-.47 2.41-3.14 2.41s-2.93-1.93-2.97-2.98h-5.92c-.13 3.99 2.49 7.33 8.36 7.33 5.4 0 9.55-2.76 9.55-7.5.01-7.3-9.87-5.1-9.87-8.65"/></g></svg>